<?xml version="1.0" standalone="no"?>
<!DOCTYPE svg PUBLIC "-//W3C//DTD SVG 20010904//EN"
 "http://www.w3.org/TR/2001/REC-SVG-20010904/DTD/svg10.dtd">
<svg version="1.0" xmlns="http://www.w3.org/2000/svg"
 width="700.000000pt" height="700.000000pt" viewBox="0 0 700.000000 700.000000"
 preserveAspectRatio="xMidYMid meet">
<metadata>
Created by potrace 1.11, written by Peter Selinger 2001-2013
</metadata>
<g transform="translate(0.000000,700.000000) scale(0.100000,-0.100000)"
fill="#000000" stroke="none">
<path d="M2850 6986 c-122 -46 -190 -136 -192 -256 -2 -118 53 -208 162 -262
40 -20 61 -23 205 -25 88 -1 168 -2 178 -2 16 -1 17 -19 17 -241 0 -222 -1
-240 -17 -241 -10 0 -29 -3 -43 -5 -14 -2 -64 -11 -111 -19 -338 -59 -704
-215 -996 -427 l-96 -70 -170 170 -170 170 121 123 c143 144 167 189 159 295
-11 152 -122 256 -272 257 -120 1 -117 3 -599 -478 -482 -483 -480 -480 -479
-600 1 -152 108 -264 263 -273 102 -6 150 21 293 163 l119 118 170 -171 171
-170 -30 -39 c-39 -49 -144 -205 -177 -263 -53 -91 -141 -278 -180 -382 -56
-149 -130 -458 -135 -560 -1 -17 -19 -18 -241 -18 -132 0 -240 3 -241 8 0 4
-1 84 -3 177 -2 146 -5 176 -23 215 -70 154 -263 210 -409 118 -47 -30 -99
-103 -114 -160 -7 -24 -10 -258 -8 -660 l3 -623 29 -52 c54 -97 161 -156 267
-146 98 9 184 70 230 162 21 42 24 61 26 216 1 94 2 173 2 178 1 4 109 7 241
7 185 0 240 -3 241 -12 3 -56 29 -196 56 -302 59 -238 152 -466 274 -668 61
-100 150 -230 176 -256 7 -7 13 -17 13 -20 0 -4 -76 -83 -168 -176 l-169 -168
-119 117 c-65 64 -137 126 -158 137 -91 46 -226 29 -305 -39 -90 -76 -121
-221 -71 -326 30 -63 869 -905 933 -936 23 -11 66 -22 95 -25 199 -17 346 169
287 364 -16 53 -30 71 -143 186 l-124 127 170 169 169 170 69 -50 c129 -93
243 -163 371 -226 70 -35 139 -67 153 -71 14 -4 30 -11 35 -15 38 -30 403
-129 535 -146 30 -4 62 -8 70 -10 8 -1 18 -3 23 -3 4 -1 7 -109 7 -241 l0
-240 -22 -1 c-13 0 -93 -1 -178 -2 -140 -2 -159 -5 -201 -26 -79 -40 -125 -90
-149 -166 -45 -136 27 -290 160 -342 41 -17 97 -18 670 -18 705 0 680 -3 760
77 139 140 100 363 -79 449 -41 20 -64 23 -216 26 -93 1 -173 3 -177 3 -11 0
-10 480 1 480 5 0 64 9 132 21 176 30 409 98 549 161 183 82 341 173 488 280
l84 61 170 -170 170 -170 -117 -118 c-145 -147 -160 -173 -160 -280 0 -66 4
-89 25 -128 66 -131 232 -189 363 -127 67 32 901 864 936 935 33 65 34 171 2
232 -69 137 -214 196 -352 144 -46 -17 -77 -43 -178 -143 l-123 -121 -171 171
-171 171 41 53 c192 252 336 549 418 863 32 126 36 145 49 230 4 22 8 51 11
65 2 14 4 31 4 38 1 9 56 12 241 12 l240 0 1 -22 c0 -13 1 -93 3 -178 3 -160
4 -166 46 -238 28 -49 109 -107 160 -116 19 -3 48 -8 63 -10 16 -3 56 4 90 14
71 22 133 74 169 143 l23 42 0 645 0 645 -33 58 c-115 198 -390 186 -494 -23
-20 -40 -23 -61 -25 -200 -1 -85 -2 -165 -2 -177 l-1 -23 -240 0 c-136 0 -240
4 -240 9 0 25 -42 252 -60 324 -75 297 -225 611 -408 855 l-55 74 170 170 171
171 119 -118 c139 -138 172 -158 266 -161 121 -5 212 49 263 153 35 71 37 163
6 234 -29 66 -868 906 -939 939 -143 68 -329 -11 -379 -163 -21 -63 -15 -157
14 -212 11 -22 73 -93 137 -159 l118 -118 -170 -170 -170 -170 -82 60 c-169
126 -395 247 -605 326 -72 27 -248 80 -301 91 -16 3 -85 15 -152 27 l-123 21
0 239 c0 131 3 238 8 239 4 0 84 1 177 3 152 2 175 5 216 25 158 76 210 266
113 411 -34 51 -114 104 -171 114 -21 3 -308 6 -638 5 -467 0 -608 -3 -635
-13z m875 -1579 c11 -3 41 -7 66 -11 319 -46 648 -191 910 -401 231 -184 439
-456 558 -730 37 -87 95 -256 105 -306 2 -13 7 -35 10 -49 14 -59 21 -104 34
-210 9 -74 8 -382 -2 -430 -2 -14 -7 -42 -10 -63 -40 -266 -149 -542 -305
-773 -93 -138 -135 -189 -246 -298 -252 -248 -545 -412 -884 -496 -113 -28
-144 -33 -281 -50 -66 -8 -365 -5 -410 4 -14 3 -41 8 -60 10 -166 22 -408 100
-574 185 -97 50 -289 169 -306 190 -3 4 -30 26 -60 51 -67 54 -196 184 -247
248 -21 26 -41 49 -44 52 -19 16 -138 205 -183 292 -86 165 -172 422 -190 570
-3 24 -8 59 -12 78 -10 60 -12 352 -3 425 16 133 19 150 43 250 26 105 71 239
108 322 12 26 22 50 22 53 1 3 29 55 63 115 212 380 560 686 960 846 164 66
363 115 508 125 44 4 82 8 84 10 5 4 321 -4 346 -9z"/>
<path d="M3335 4568 c-173 -23 -327 -159 -385 -341 -15 -49 -19 -159 -7 -216
28 -141 139 -280 267 -338 302 -134 650 76 664 402 14 302 -238 533 -539 493z"/>
<path d="M3983 3545 c-101 -22 -190 -72 -269 -150 -124 -122 -176 -251 -170
-418 2 -51 6 -99 8 -107 3 -8 8 -28 13 -45 14 -53 74 -159 118 -207 82 -90
168 -142 285 -173 297 -76 591 96 683 399 26 87 21 248 -11 336 -41 115 -129
225 -232 291 -114 73 -292 104 -425 74z"/>
<path d="M2603 3355 c-102 -28 -182 -96 -236 -200 -29 -55 -31 -68 -32 -160 0
-87 3 -107 26 -155 99 -211 352 -288 543 -166 268 172 221 574 -79 676 -63 21
-155 23 -222 5z"/>
</g>
</svg>
